name ./resultDataOpenSim/trcMotMarkerGrf/sub06/grf-05-07.mot
datacolumns 19
datarows 30
range 1.06400000 1.18000000
endheader

                time	     ground_force_vx	     ground_force_vy	     ground_force_vz	     ground_force_px	     ground_force_py	     ground_force_pz	   l_ground_force_vx	   l_ground_force_vy	   l_ground_force_vz	   l_ground_force_px	   l_ground_force_py	   l_ground_force_pz	     ground_torque_x	     ground_torque_y	     ground_torque_z	   l_ground_torque_x	   l_ground_torque_y	   l_ground_torque_z	
          1.06400000	          0.00000000	          0.00000000	          0.00000000	          0.00000000	          0.00000000	          0.00000000	        154.94115383	        732.66223758	         11.89207659	          0.05233801	         -0.10000000	          0.01105326	          0.00000000	          0.00000000	          0.00000000	          0.00000000	         -1.83256741	          0.00000000	
          1.06800000	          0.00000000	          0.00000000	          0.00000000	          0.00000000	          0.00000000	          0.00000000	        161.58832249	        739.80596126	         12.01105444	          0.05249618	         -0.10000000	          0.01112450	          0.00000000	          0.00000000	          0.00000000	          0.00000000	         -1.78064501	          0.00000000	
          1.07200000	          0.00000000	          0.00000000	          0.00000000	          0.00000000	          0.00000000	          0.00000000	        167.98697155	        743.34168764	         12.01089497	          0.05270015	         -0.10000000	          0.01117875	          0.00000000	          0.00000000	          0.00000000	          0.00000000	         -1.72689765	          0.00000000	
          1.07600000	          0.00000000	          0.00000000	          0.00000000	          0.00000000	          0.00000000	          0.00000000	        174.08182325	        742.94879368	         11.84767773	          0.05294412	         -0.10000000	          0.01120917	          0.00000000	          0.00000000	          0.00000000	          0.00000000	         -1.67548974	          0.00000000	
          1.08000000	          0.00000000	          0.00000000	          0.00000000	          0.00000000	          0.00000000	          0.00000000	        179.73780532	        738.31208547	         11.48200314	          0.05322747	         -0.10000000	          0.01122020	          0.00000000	          0.00000000	          0.00000000	          0.00000000	         -1.62939141	          0.00000000	
          1.08400000	          0.00000000	          0.00000000	          0.00000000	          0.00000000	          0.00000000	          0.00000000	        184.74641025	        729.12594007	         10.90054170	          0.05356019	         -0.10000000	          0.01122715	          0.00000000	          0.00000000	          0.00000000	          0.00000000	         -1.58984663	          0.00000000	
          1.08800000	          0.00000000	          0.00000000	          0.00000000	          0.00000000	          0.00000000	          0.00000000	        188.84900566	        715.12135449	         10.12918319	          0.05396166	         -0.10000000	          0.01124485	          0.00000000	          0.00000000	          0.00000000	          0.00000000	         -1.55615530	          0.00000000	
          1.09200000	          0.00000000	          0.00000000	          0.00000000	          0.00000000	          0.00000000	          0.00000000	        191.74927655	        696.06431148	          9.22708941	          0.05444075	         -0.10000000	          0.01127640	          0.00000000	          0.00000000	          0.00000000	          0.00000000	         -1.52594216	          0.00000000	
          1.09600000	          0.00000000	          0.00000000	          0.00000000	          0.00000000	          0.00000000	          0.00000000	        193.12693215	        671.75948435	          8.25327323	          0.05500396	         -0.10000000	          0.01131843	          0.00000000	          0.00000000	          0.00000000	          0.00000000	         -1.49580302	          0.00000000	
          1.10000000	          0.00000000	          0.00000000	          0.00000000	          0.00000000	          0.00000000	          0.00000000	        192.64989405	        642.10547717	          7.22614870	          0.05565575	         -0.10000000	          0.01135717	          0.00000000	          0.00000000	          0.00000000	          0.00000000	         -1.46196422	          0.00000000	
          1.10400000	          0.00000000	          0.00000000	          0.00000000	          0.00000000	          0.00000000	          0.00000000	        189.97117260	        607.16708406	          6.12526370	          0.05640248	         -0.10000000	          0.01136855	          0.00000000	          0.00000000	          0.00000000	          0.00000000	         -1.42069745	          0.00000000	
          1.10800000	          0.00000000	          0.00000000	          0.00000000	          0.00000000	          0.00000000	          0.00000000	        184.74526040	        567.25941654	          4.92781070	          0.05727038	         -0.10000000	          0.01136060	          0.00000000	          0.00000000	          0.00000000	          0.00000000	         -1.36854895	          0.00000000	
          1.11200000	        -13.05058966	        128.69099391	          2.57667718	          0.72895524	          0.00000000	          0.08693918	        176.69840923	        523.04198172	          3.62498032	          0.05835265	         -0.10000000	          0.01136966	          0.00000000	          0.60869422	          0.00000000	          0.00000000	         -1.30256438	          0.00000000	
          1.11600000	        -21.18268688	        278.87087548	         14.31950325	          0.73362574	          0.00000000	          0.08536652	        165.73799389	        475.54196791	          2.23270580	          0.05974898	         -0.10000000	          0.01141370	          0.00000000	          0.42524056	          0.00000000	          0.00000000	         -1.22059867	          0.00000000	
          1.12000000	        -31.07370478	        411.84716117	         24.94975184	          0.73802217	          0.00000000	          0.08439581	        152.07377600	        426.08889948	          0.82631698	          0.06151956	         -0.10000000	          0.01149198	          0.00000000	          0.18375431	          0.00000000	          0.00000000	         -1.12171026	          0.00000000	
          1.12400000	        -43.79014435	        517.56883861	         33.13231343	          0.74178043	          0.00000000	          0.08451473	        136.28194233	        376.24171590	         -0.46381395	          0.06369361	         -0.10000000	          0.01159917	          0.00000000	         -0.14008506	          0.00000000	          0.00000000	         -1.00659646	          0.00000000	
          1.12800000	        -60.02554046	        595.81826055	         37.65367326	          0.74517107	          0.00000000	          0.08556961	        119.22665941	        327.71924424	         -1.52863536	          0.06626185	         -0.10000000	          0.01173404	          0.00000000	         -0.53328087	          0.00000000	          0.00000000	         -0.87794369	          0.00000000	
          1.13200000	        -80.12931869	        652.58266067	         38.16016155	          0.74919713	          0.00000000	          0.08685508	        101.89382461	        282.19881519	         -2.33668494	          0.06914600	         -0.10000000	          0.01191228	          0.00000000	         -0.94192751	          0.00000000	          0.00000000	         -0.74041397	          0.00000000	
          1.13600000	       -104.19568776	        694.46137885	         35.28255676	          0.75460379	          0.00000000	          0.08791543	         85.26630594	        240.93070676	         -2.90415107	          0.07216700	         -0.10000000	          0.01214698	          0.00000000	         -1.28257222	          0.00000000	          0.00000000	         -0.59999646	          0.00000000	
          1.14000000	       -131.44519934	        726.03189589	         30.17668966	          0.76100734	          0.00000000	          0.08882310	         70.22694943	        204.42775799	         -3.23437518	          0.07508558	         -0.10000000	          0.01242391	          0.00000000	         -1.46800167	          0.00000000	          0.00000000	         -0.46285871	          0.00000000	
          1.14400000	       -159.90000154	        750.95371711	         24.05868319	          0.76727653	          0.00000000	          0.08974515	         57.40133729	        172.51965022	         -3.29161979	          0.07766317	         -0.10000000	          0.01270425	          0.00000000	         -1.44064898	          0.00000000	          0.00000000	         -0.33427967	          0.00000000	
          1.14800000	       -187.41186025	        773.43312115	         17.86517787	          0.77264946	          0.00000000	          0.09061409	         46.99275507	        144.68224499	         -3.01540999	          0.07972172	         -0.10000000	          0.01293566	          0.00000000	         -1.20054050	          0.00000000	          0.00000000	         -0.21811959	          0.00000000	
          1.15200000	       -212.85460517	        797.46484460	         12.06274963	          0.77736961	          0.00000000	          0.09123437	         38.75813067	        120.32184933	         -2.36487754	          0.08118112	         -0.10000000	          0.01310469	          0.00000000	         -0.81381583	          0.00000000	          0.00000000	         -0.11672277	          0.00000000	
          1.15600000	       -235.80078825	        824.88770252	          6.82533097	          0.78206082	          0.00000000	          0.09151809	         32.16936998	         98.89072762	         -1.36287314	          0.08213931	         -0.10000000	          0.01323390	          0.00000000	         -0.39551662	          0.00000000	          0.00000000	         -0.03091329	          0.00000000	
          1.16000000	       -255.31723602	        854.71079588	          2.41668069	          0.78671713	          0.00000000	          0.09156570	         26.67023972	         79.93054707	         -0.09761234	          0.08291735	         -0.10000000	          0.01335735	          0.00000000	         -0.07292722	          0.00000000	          0.00000000	          0.03998036	          0.00000000	
          1.16400000	       -269.85110685	        884.50137971	         -0.68547334	          0.79064335	          0.00000000	          0.09157435	         21.89832417	         63.09140824	          1.31520852	          0.08412296	         -0.10000000	          0.01357862	          0.00000000	          0.05468924	          0.00000000	          0.00000000	          0.09791667	          0.00000000	
          1.16800000	       -278.49903710	        912.50214572	         -1.95283300	          0.79328850	          0.00000000	          0.09167272	         17.75230975	         48.09842542	          2.77195121	          0.08672582	         -0.10000000	          0.01410896	          0.00000000	         -0.05641095	          0.00000000	          0.00000000	          0.14570751	          0.00000000	
          1.17200000	       -281.92527089	        938.61924163	         -0.99838005	          0.79488529	          0.00000000	          0.09179676	         14.27167229	         34.68895407	          4.19997104	          0.09195270	         -0.10000000	          0.01525620	          0.00000000	         -0.38802593	          0.00000000	          0.00000000	          0.18642052	          0.00000000	
          1.17600000	       -281.77189646	        963.56532940	          2.20535082	          0.79613170	          0.00000000	          0.09174596	         11.44491132	         22.58648173	          5.55630692	          0.10162412	         -0.10000000	          0.01773127	          0.00000000	         -0.87233234	          0.00000000	          0.00000000	          0.22265534	          0.00000000	
          1.18000000	       -279.51246484	        987.21312285	          7.10237511	          0.79735266	          0.00000000	          0.09144419	          9.11065257	         11.55649861	          6.81462800	          0.11960258	         -0.10000000	          0.02346677	          0.00000000	         -1.41407857	          0.00000000	          0.00000000	          0.25587480	          0.00000000	
